<mxfile host="app.diagrams.net" modified="2024-01-16T17:18:48.790Z" agent="Mozilla/5.0 (Windows NT 10.0; Win64; x64) AppleWebKit/537.36 (KHTML, like Gecko) Chrome/120.0.0.0 Safari/537.36" version="22.1.19" etag="aSuTuj6M_SoyE1uZgTns" type="github">
  <diagram name="Страница — 1" id="FoabR-u80p6A-2CzeRyq">
    <mxGraphModel>
      <root>
        <mxCell id="0" />
        <mxCell id="1" parent="0" />
      </root>
    </mxGraphModel>
  </diagram>
</mxfile>
